# Blender 5.1.2
# www.blender.org
mtllib EasyMaze.mtl
o MazePro_Walls
v 0.000000 0.000000 0.000000
v 0.200000 0.000000 0.000000
v 0.200000 0.200000 -0.000000
v 0.000000 0.200000 -0.000000
v 0.000000 0.000000 0.200000
v 0.200000 0.000000 0.200000
v 0.200000 0.200000 0.200000
v 0.000000 0.200000 0.200000
v 0.200000 0.400000 -0.000000
v 0.000000 0.400000 -0.000000
v 0.200000 0.400000 0.200000
v 0.000000 0.400000 0.200000
v 0.200000 0.600000 -0.000000
v 0.000000 0.600000 -0.000000
v 0.200000 0.600000 0.200000
v 0.000000 0.600000 0.200000
v 0.200000 0.800000 -0.000000
v 0.000000 0.800000 -0.000000
v 0.200000 0.800000 0.200000
v 0.000000 0.800000 0.200000
v 0.200000 1.000000 -0.000000
v 0.000000 1.000000 -0.000000
v 0.200000 1.000000 0.200000
v 0.000000 1.000000 0.200000
v 0.200000 1.200000 -0.000000
v 0.000000 1.200000 -0.000000
v 0.200000 1.200000 0.200000
v 0.000000 1.200000 0.200000
v 0.200000 1.400000 -0.000000
v 0.000000 1.400000 -0.000000
v 0.200000 1.400000 0.200000
v 0.000000 1.400000 0.200000
v 0.200000 1.600000 -0.000000
v 0.000000 1.600000 -0.000000
v 0.200000 1.600000 0.200000
v 0.000000 1.600000 0.200000
v 0.200000 1.800000 -0.000000
v 0.000000 1.800000 -0.000000
v 0.200000 1.800000 0.200000
v 0.000000 1.800000 0.200000
v 0.200000 2.000000 -0.000000
v 0.000000 2.000000 -0.000000
v 0.200000 2.000000 0.200000
v 0.000000 2.000000 0.200000
v 0.200000 2.200000 -0.000000
v 0.000000 2.200000 -0.000000
v 0.200000 2.200000 0.200000
v 0.000000 2.200000 0.200000
v 0.400000 1.200000 -0.000000
v 0.400000 1.400000 -0.000000
v 0.400000 1.200000 0.200000
v 0.400000 1.400000 0.200000
v 0.400000 2.000000 -0.000000
v 0.400000 2.200000 -0.000000
v 0.400000 2.000000 0.200000
v 0.400000 2.200000 0.200000
v 0.400000 0.000000 0.000000
v 0.600000 0.000000 0.000000
v 0.600000 0.200000 -0.000000
v 0.400000 0.200000 -0.000000
v 0.400000 0.000000 0.200000
v 0.600000 0.000000 0.200000
v 0.600000 0.200000 0.200000
v 0.400000 0.200000 0.200000
v 0.400000 0.400000 -0.000000
v 0.600000 0.400000 -0.000000
v 0.600000 0.600000 -0.000000
v 0.400000 0.600000 -0.000000
v 0.400000 0.400000 0.200000
v 0.600000 0.400000 0.200000
v 0.600000 0.600000 0.200000
v 0.400000 0.600000 0.200000
v 0.600000 0.800000 -0.000000
v 0.400000 0.800000 -0.000000
v 0.600000 0.800000 0.200000
v 0.400000 0.800000 0.200000
v 0.600000 1.000000 -0.000000
v 0.400000 1.000000 -0.000000
v 0.600000 1.000000 0.200000
v 0.400000 1.000000 0.200000
v 0.600000 1.200000 -0.000000
v 0.600000 1.400000 -0.000000
v 0.600000 1.200000 0.200000
v 0.600000 1.400000 0.200000
v 0.400000 1.600000 -0.000000
v 0.600000 1.600000 -0.000000
v 0.600000 1.800000 -0.000000
v 0.400000 1.800000 -0.000000
v 0.400000 1.600000 0.200000
v 0.600000 1.600000 0.200000
v 0.600000 1.800000 0.200000
v 0.400000 1.800000 0.200000
v 0.600000 2.000000 -0.000000
v 0.600000 2.200000 -0.000000
v 0.600000 2.000000 0.200000
v 0.600000 2.200000 0.200000
v 0.800000 0.000000 0.000000
v 0.800000 0.200000 -0.000000
v 0.800000 0.000000 0.200000
v 0.800000 0.200000 0.200000
v 0.800000 0.800000 -0.000000
v 0.800000 1.000000 -0.000000
v 0.800000 0.800000 0.200000
v 0.800000 1.000000 0.200000
v 0.800000 1.600000 -0.000000
v 0.800000 1.800000 -0.000000
v 0.800000 1.600000 0.200000
v 0.800000 1.800000 0.200000
v 0.800000 2.000000 -0.000000
v 0.800000 2.200000 -0.000000
v 0.800000 2.000000 0.200000
v 0.800000 2.200000 0.200000
v 1.000000 0.000000 0.000000
v 1.000000 0.200000 -0.000000
v 1.000000 0.000000 0.200000
v 1.000000 0.200000 0.200000
v 1.000000 0.400000 -0.000000
v 0.800000 0.400000 -0.000000
v 1.000000 0.400000 0.200000
v 0.800000 0.400000 0.200000
v 1.000000 0.600000 -0.000000
v 0.800000 0.600000 -0.000000
v 1.000000 0.600000 0.200000
v 0.800000 0.600000 0.200000
v 1.000000 0.800000 -0.000000
v 1.000000 1.000000 -0.000000
v 1.000000 0.800000 0.200000
v 1.000000 1.000000 0.200000
v 1.000000 1.200000 -0.000000
v 0.800000 1.200000 -0.000000
v 1.000000 1.200000 0.200000
v 0.800000 1.200000 0.200000
v 1.000000 1.400000 -0.000000
v 0.800000 1.400000 -0.000000
v 1.000000 1.400000 0.200000
v 0.800000 1.400000 0.200000
v 1.000000 1.600000 -0.000000
v 1.000000 1.600000 0.200000
v 1.000000 1.800000 -0.000000
v 1.000000 1.800000 0.200000
v 1.000000 2.000000 -0.000000
v 1.000000 2.200000 -0.000000
v 1.000000 2.000000 0.200000
v 1.000000 2.200000 0.200000
v 1.200000 0.000000 0.000000
v 1.200000 0.200000 -0.000000
v 1.200000 0.000000 0.200000
v 1.200000 0.200000 0.200000
v 1.200000 0.400000 -0.000000
v 1.200000 0.600000 -0.000000
v 1.200000 0.400000 0.200000
v 1.200000 0.600000 0.200000
v 1.200000 1.600000 -0.000000
v 1.200000 1.800000 -0.000000
v 1.200000 1.600000 0.200000
v 1.200000 1.800000 0.200000
v 1.200000 2.000000 -0.000000
v 1.200000 2.200000 -0.000000
v 1.200000 2.000000 0.200000
v 1.200000 2.200000 0.200000
v 1.400000 0.000000 0.000000
v 1.400000 0.200000 -0.000000
v 1.400000 0.000000 0.200000
v 1.400000 0.200000 0.200000
v 1.400000 0.400000 -0.000000
v 1.400000 0.600000 -0.000000
v 1.400000 0.400000 0.200000
v 1.400000 0.600000 0.200000
v 1.400000 0.800000 -0.000000
v 1.200000 0.800000 -0.000000
v 1.400000 0.800000 0.200000
v 1.200000 0.800000 0.200000
v 1.400000 1.000000 -0.000000
v 1.200000 1.000000 -0.000000
v 1.400000 1.000000 0.200000
v 1.200000 1.000000 0.200000
v 1.400000 1.200000 -0.000000
v 1.200000 1.200000 -0.000000
v 1.400000 1.200000 0.200000
v 1.200000 1.200000 0.200000
v 1.400000 1.400000 -0.000000
v 1.200000 1.400000 -0.000000
v 1.400000 1.400000 0.200000
v 1.200000 1.400000 0.200000
v 1.400000 1.600000 -0.000000
v 1.400000 1.800000 -0.000000
v 1.400000 1.600000 0.200000
v 1.400000 1.800000 0.200000
v 1.400000 2.000000 -0.000000
v 1.400000 2.200000 -0.000000
v 1.400000 2.000000 0.200000
v 1.400000 2.200000 0.200000
v 1.600000 0.000000 0.000000
v 1.600000 0.200000 -0.000000
v 1.600000 0.000000 0.200000
v 1.600000 0.200000 0.200000
v 1.600000 0.800000 -0.000000
v 1.600000 1.000000 -0.000000
v 1.600000 0.800000 0.200000
v 1.600000 1.000000 0.200000
v 1.600000 1.600000 -0.000000
v 1.600000 1.800000 -0.000000
v 1.600000 1.600000 0.200000
v 1.600000 1.800000 0.200000
v 1.600000 2.000000 -0.000000
v 1.600000 2.200000 -0.000000
v 1.600000 2.000000 0.200000
v 1.600000 2.200000 0.200000
v 1.800000 0.000000 0.000000
v 1.800000 0.200000 -0.000000
v 1.800000 0.000000 0.200000
v 1.800000 0.200000 0.200000
v 1.600000 0.400000 -0.000000
v 1.800000 0.400000 -0.000000
v 1.800000 0.600000 -0.000000
v 1.600000 0.600000 -0.000000
v 1.600000 0.400000 0.200000
v 1.800000 0.400000 0.200000
v 1.800000 0.600000 0.200000
v 1.600000 0.600000 0.200000
v 1.800000 0.800000 -0.000000
v 1.800000 1.000000 -0.000000
v 1.800000 0.800000 0.200000
v 1.800000 1.000000 0.200000
v 1.600000 1.200000 -0.000000
v 1.800000 1.200000 -0.000000
v 1.800000 1.400000 -0.000000
v 1.600000 1.400000 -0.000000
v 1.600000 1.200000 0.200000
v 1.800000 1.200000 0.200000
v 1.800000 1.400000 0.200000
v 1.600000 1.400000 0.200000
v 1.800000 1.600000 -0.000000
v 1.800000 1.600000 0.200000
v 1.800000 1.800000 -0.000000
v 1.800000 1.800000 0.200000
v 1.800000 2.000000 -0.000000
v 1.800000 2.200000 -0.000000
v 1.800000 2.000000 0.200000
v 1.800000 2.200000 0.200000
v 2.000000 0.000000 0.000000
v 2.000000 0.200000 -0.000000
v 2.000000 0.000000 0.200000
v 2.000000 0.200000 0.200000
v 2.000000 0.400000 -0.000000
v 2.000000 0.600000 -0.000000
v 2.000000 0.400000 0.200000
v 2.000000 0.600000 0.200000
v 2.200000 0.000000 0.000000
v 2.200000 0.200000 -0.000000
v 2.200000 0.000000 0.200000
v 2.200000 0.200000 0.200000
v 2.200000 0.400000 -0.000000
v 2.200000 0.400000 0.200000
v 2.200000 0.600000 -0.000000
v 2.200000 0.600000 0.200000
v 2.200000 0.800000 -0.000000
v 2.000000 0.800000 -0.000000
v 2.200000 0.800000 0.200000
v 2.000000 0.800000 0.200000
v 2.200000 1.000000 -0.000000
v 2.000000 1.000000 -0.000000
v 2.200000 1.000000 0.200000
v 2.000000 1.000000 0.200000
v 2.200000 1.200000 -0.000000
v 2.000000 1.200000 -0.000000
v 2.200000 1.200000 0.200000
v 2.000000 1.200000 0.200000
v 2.200000 1.400000 -0.000000
v 2.000000 1.400000 -0.000000
v 2.200000 1.400000 0.200000
v 2.000000 1.400000 0.200000
v 2.200000 1.600000 -0.000000
v 2.000000 1.600000 -0.000000
v 2.200000 1.600000 0.200000
v 2.000000 1.600000 0.200000
v 2.200000 1.800000 -0.000000
v 2.000000 1.800000 -0.000000
v 2.200000 1.800000 0.200000
v 2.000000 1.800000 0.200000
v 2.200000 2.000000 -0.000000
v 2.000000 2.000000 -0.000000
v 2.200000 2.000000 0.200000
v 2.000000 2.000000 0.200000
v 2.200000 2.200000 -0.000000
v 2.000000 2.200000 -0.000000
v 2.200000 2.200000 0.200000
v 2.000000 2.200000 0.200000
vn -0.0000 -0.0000 -1.0000
vn -0.0000 -0.0000 1.0000
vn -0.0000 -1.0000 -0.0000
vn -0.0000 1.0000 -0.0000
vn -1.0000 -0.0000 -0.0000
vn 1.0000 -0.0000 -0.0000
vt -2.242757 -1.735509
vt -1.742757 -1.735509
vt -1.742757 -2.235509
vt -2.242757 -2.235509
vt -2.242757 0.250000
vt -1.742757 0.250000
vt -1.742757 0.750000
vt -2.242757 0.750000
vt -1.735509 0.250000
vt -2.235509 0.250000
vt -2.235509 0.750000
vt -1.735509 0.750000
vt -2.242757 -1.235509
vt -1.742757 -1.235509
vt -1.235509 0.250000
vt -1.235509 0.750000
vt -2.242757 -0.735509
vt -1.742757 -0.735509
vt -0.735509 0.250000
vt -0.735509 0.750000
vt -2.242757 -0.235509
vt -1.742757 -0.235509
vt -0.235509 0.250000
vt -0.235509 0.750000
vt -2.242757 0.264491
vt -1.742757 0.264491
vt 0.264491 0.250000
vt 0.264491 0.750000
vt -2.242757 0.764491
vt -1.742757 0.764491
vt 0.764491 0.250000
vt 0.764491 0.750000
vt -2.242757 1.264491
vt -1.742757 1.264491
vt 1.264491 0.250000
vt 1.264491 0.750000
vt -2.242757 1.764491
vt -1.742757 1.764491
vt 1.764491 0.250000
vt 1.764491 0.750000
vt -2.242757 2.264491
vt -1.742757 2.264491
vt 2.264491 0.250000
vt 2.264491 0.750000
vt -2.242757 2.764491
vt -1.742757 2.764491
vt 2.764491 0.250000
vt 2.764491 0.750000
vt -2.242757 3.264491
vt -1.742757 3.264491
vt 3.264491 0.250000
vt 3.264491 0.750000
vt -1.242757 1.264491
vt -1.242757 0.764491
vt -1.242757 0.250000
vt -1.242757 0.750000
vt -1.242757 3.264491
vt -1.242757 2.764491
vt -1.242757 -1.735509
vt -0.742757 -1.735509
vt -0.742757 -2.235509
vt -1.242757 -2.235509
vt -0.742757 0.250000
vt -0.742757 0.750000
vt -1.242757 -0.735509
vt -0.742757 -0.735509
vt -0.742757 -1.235509
vt -1.242757 -1.235509
vt -1.242757 -0.235509
vt -0.742757 -0.235509
vt -1.242757 0.264491
vt -0.742757 0.264491
vt -0.742757 1.264491
vt -0.742757 0.764491
vt -1.242757 2.264491
vt -0.742757 2.264491
vt -0.742757 1.764491
vt -1.242757 1.764491
vt -0.742757 3.264491
vt -0.742757 2.764491
vt -0.242757 -1.735509
vt -0.242757 -2.235509
vt -0.242757 0.250000
vt -0.242757 0.750000
vt -0.242757 0.264491
vt -0.242757 -0.235509
vt -0.242757 2.264491
vt -0.242757 1.764491
vt -0.242757 3.264491
vt -0.242757 2.764491
vt 0.257243 -1.735509
vt 0.257243 -2.235509
vt 0.257243 0.250000
vt 0.257243 0.750000
vt -0.242757 -1.235509
vt 0.257243 -1.235509
vt -0.242757 -0.735509
vt 0.257243 -0.735509
vt 0.257243 0.264491
vt 0.257243 -0.235509
vt -0.242757 0.764491
vt 0.257243 0.764491
vt -0.242757 1.264491
vt 0.257243 1.264491
vt 0.257243 1.764491
vt 0.257243 2.264491
vt 0.257243 3.264491
vt 0.257243 2.764491
vt 0.757243 -1.735509
vt 0.757243 -2.235509
vt 0.757243 0.250000
vt 0.757243 0.750000
vt 0.757243 -0.735509
vt 0.757243 -1.235509
vt 0.757243 2.264491
vt 0.757243 1.764491
vt 0.757243 3.264491
vt 0.757243 2.764491
vt 1.257243 -1.735509
vt 1.257243 -2.235509
vt 1.257243 0.250000
vt 1.257243 0.750000
vt 1.257243 -0.735509
vt 1.257243 -1.235509
vt 0.757243 -0.235509
vt 1.257243 -0.235509
vt 0.757243 0.264491
vt 1.257243 0.264491
vt 0.757243 0.764491
vt 1.257243 0.764491
vt 0.757243 1.264491
vt 1.257243 1.264491
vt 1.257243 2.264491
vt 1.257243 1.764491
vt 1.257243 3.264491
vt 1.257243 2.764491
vt 1.757243 -1.735509
vt 1.757243 -2.235509
vt 1.757243 0.250000
vt 1.757243 0.750000
vt 1.757243 0.264491
vt 1.757243 -0.235509
vt 1.757243 2.264491
vt 1.757243 1.764491
vt 1.757243 3.264491
vt 1.757243 2.764491
vt 2.257243 -1.735509
vt 2.257243 -2.235509
vt 2.257243 0.250000
vt 2.257243 0.750000
vt 1.757243 -0.735509
vt 2.257243 -0.735509
vt 2.257243 -1.235509
vt 1.757243 -1.235509
vt 2.257243 0.264491
vt 2.257243 -0.235509
vt 1.757243 1.264491
vt 2.257243 1.264491
vt 2.257243 0.764491
vt 1.757243 0.764491
vt 2.257243 1.764491
vt 2.257243 2.264491
vt 2.257243 3.264491
vt 2.257243 2.764491
vt 2.757243 -1.735509
vt 2.757243 -2.235509
vt 2.757243 0.250000
vt 2.757243 0.750000
vt 2.757243 -0.735509
vt 2.757243 -1.235509
vt 3.257243 -1.735509
vt 3.257243 -2.235509
vt 3.257243 0.250000
vt 3.257243 0.750000
vt 3.257243 -1.235509
vt 3.257243 -0.735509
vt 2.757243 -0.235509
vt 3.257243 -0.235509
vt 2.757243 0.264491
vt 3.257243 0.264491
vt 2.757243 0.764491
vt 3.257243 0.764491
vt 2.757243 1.264491
vt 3.257243 1.264491
vt 2.757243 1.764491
vt 3.257243 1.764491
vt 0.000000 0.000000
vt 2.757243 2.264491
vt 3.257243 2.264491
vt 2.757243 2.764491
vt 3.257243 2.764491
vt 2.757243 3.264491
vt 3.257243 3.264491
s 1
usemtl MazePro_WallMat
f 4/1/1 3/2/1 2/3/1 1/4/1
f 5/4/2 6/3/2 7/2/2 8/1/2
f 1/5/3 2/6/3 6/7/3 5/8/3
f 3/6/4 4/5/4 8/8/4 7/7/4
f 4/9/5 1/10/5 5/11/5 8/12/5
f 10/13/1 9/14/1 3/2/1 4/1/1
f 8/1/2 7/2/2 11/14/2 12/13/2
f 3/9/6 9/15/6 11/16/6 7/12/6
f 9/6/4 10/5/4 12/8/4 11/7/4
f 10/15/5 4/9/5 8/12/5 12/16/5
f 14/17/1 13/18/1 9/14/1 10/13/1
f 12/13/2 11/14/2 15/18/2 16/17/2
f 9/15/6 13/19/6 15/20/6 11/16/6
f 13/6/4 14/5/4 16/8/4 15/7/4
f 14/19/5 10/15/5 12/16/5 16/20/5
f 18/21/1 17/22/1 13/18/1 14/17/1
f 16/17/2 15/18/2 19/22/2 20/21/2
f 13/19/6 17/23/6 19/24/6 15/20/6
f 17/6/4 18/5/4 20/8/4 19/7/4
f 18/23/5 14/19/5 16/20/5 20/24/5
f 22/25/1 21/26/1 17/22/1 18/21/1
f 20/21/2 19/22/2 23/26/2 24/25/2
f 17/23/6 21/27/6 23/28/6 19/24/6
f 21/6/4 22/5/4 24/8/4 23/7/4
f 22/27/5 18/23/5 20/24/5 24/28/5
f 26/29/1 25/30/1 21/26/1 22/25/1
f 24/25/2 23/26/2 27/30/2 28/29/2
f 21/27/6 25/31/6 27/32/6 23/28/6
f 25/6/4 26/5/4 28/8/4 27/7/4
f 26/31/5 22/27/5 24/28/5 28/32/5
f 30/33/1 29/34/1 25/30/1 26/29/1
f 28/29/2 27/30/2 31/34/2 32/33/2
f 25/31/6 29/35/6 31/36/6 27/32/6
f 29/6/4 30/5/4 32/8/4 31/7/4
f 30/35/5 26/31/5 28/32/5 32/36/5
f 34/37/1 33/38/1 29/34/1 30/33/1
f 32/33/2 31/34/2 35/38/2 36/37/2
f 29/35/6 33/39/6 35/40/6 31/36/6
f 33/6/4 34/5/4 36/8/4 35/7/4
f 34/39/5 30/35/5 32/36/5 36/40/5
f 38/41/1 37/42/1 33/38/1 34/37/1
f 36/37/2 35/38/2 39/42/2 40/41/2
f 33/39/6 37/43/6 39/44/6 35/40/6
f 37/6/4 38/5/4 40/8/4 39/7/4
f 38/43/5 34/39/5 36/40/5 40/44/5
f 42/45/1 41/46/1 37/42/1 38/41/1
f 40/41/2 39/42/2 43/46/2 44/45/2
f 37/43/6 41/47/6 43/48/6 39/44/6
f 41/6/4 42/5/4 44/8/4 43/7/4
f 42/47/5 38/43/5 40/44/5 44/48/5
f 46/49/1 45/50/1 41/46/1 42/45/1
f 44/45/2 43/46/2 47/50/2 48/49/2
f 41/47/6 45/51/6 47/52/6 43/48/6
f 45/6/4 46/5/4 48/8/4 47/7/4
f 46/51/5 42/47/5 44/48/5 48/52/5
f 29/34/1 50/53/1 49/54/1 25/30/1
f 27/30/2 51/54/2 52/53/2 31/34/2
f 25/6/3 49/55/3 51/56/3 27/7/3
f 49/31/6 50/35/6 52/36/6 51/32/6
f 50/55/4 29/6/4 31/7/4 52/56/4
f 45/50/1 54/57/1 53/58/1 41/46/1
f 43/46/2 55/58/2 56/57/2 47/50/2
f 41/6/3 53/55/3 55/56/3 43/7/3
f 53/47/6 54/51/6 56/52/6 55/48/6
f 54/55/4 45/6/4 47/7/4 56/56/4
f 60/59/1 59/60/1 58/61/1 57/62/1
f 61/62/2 62/61/2 63/60/2 64/59/2
f 57/55/3 58/63/3 62/64/3 61/56/3
f 58/10/6 59/9/6 63/12/6 62/11/6
f 59/63/4 60/55/4 64/56/4 63/64/4
f 68/65/1 67/66/1 66/67/1 65/68/1
f 69/68/2 70/67/2 71/66/2 72/65/2
f 65/55/3 66/63/3 70/64/3 69/56/3
f 66/15/6 67/19/6 71/20/6 70/16/6
f 67/63/4 68/55/4 72/56/4 71/64/4
f 68/19/5 65/15/5 69/16/5 72/20/5
f 74/69/1 73/70/1 67/66/1 68/65/1
f 72/65/2 71/66/2 75/70/2 76/69/2
f 67/19/6 73/23/6 75/24/6 71/20/6
f 73/63/4 74/55/4 76/56/4 75/64/4
f 74/23/5 68/19/5 72/20/5 76/24/5
f 78/71/1 77/72/1 73/70/1 74/69/1
f 76/69/2 75/70/2 79/72/2 80/71/2
f 73/23/6 77/27/6 79/28/6 75/24/6
f 77/63/4 78/55/4 80/56/4 79/64/4
f 78/27/5 74/23/5 76/24/5 80/28/5
f 50/53/1 82/73/1 81/74/1 49/54/1
f 51/54/2 83/74/2 84/73/2 52/53/2
f 49/55/3 81/63/3 83/64/3 51/56/3
f 81/31/6 82/35/6 84/36/6 83/32/6
f 82/63/4 50/55/4 52/56/4 84/64/4
f 88/75/1 87/76/1 86/77/1 85/78/1
f 89/78/2 90/77/2 91/76/2 92/75/2
f 85/55/3 86/63/3 90/64/3 89/56/3
f 86/39/6 87/43/6 91/44/6 90/40/6
f 87/63/4 88/55/4 92/56/4 91/64/4
f 88/43/5 85/39/5 89/40/5 92/44/5
f 54/57/1 94/79/1 93/80/1 53/58/1
f 55/58/2 95/80/2 96/79/2 56/57/2
f 53/55/3 93/63/3 95/64/3 55/56/3
f 93/47/6 94/51/6 96/52/6 95/48/6
f 94/63/4 54/55/4 56/56/4 96/64/4
f 59/60/1 98/81/1 97/82/1 58/61/1
f 62/61/2 99/82/2 100/81/2 63/60/2
f 58/63/3 97/83/3 99/84/3 62/64/3
f 97/10/6 98/9/6 100/12/6 99/11/6
f 98/83/4 59/63/4 63/64/4 100/84/4
f 77/72/1 102/85/1 101/86/1 73/70/1
f 75/70/2 103/86/2 104/85/2 79/72/2
f 73/63/3 101/83/3 103/84/3 75/64/3
f 101/23/6 102/27/6 104/28/6 103/24/6
f 102/83/4 77/63/4 79/64/4 104/84/4
f 87/76/1 106/87/1 105/88/1 86/77/1
f 90/77/2 107/88/2 108/87/2 91/76/2
f 86/63/3 105/83/3 107/84/3 90/64/3
f 105/39/6 106/43/6 108/44/6 107/40/6
f 106/83/4 87/63/4 91/64/4 108/84/4
f 94/79/1 110/89/1 109/90/1 93/80/1
f 95/80/2 111/90/2 112/89/2 96/79/2
f 93/63/3 109/83/3 111/84/3 95/64/3
f 109/47/6 110/51/6 112/52/6 111/48/6
f 110/83/4 94/63/4 96/64/4 112/84/4
f 98/81/1 114/91/1 113/92/1 97/82/1
f 99/82/2 115/92/2 116/91/2 100/81/2
f 97/83/3 113/93/3 115/94/3 99/84/3
f 113/10/6 114/9/6 116/12/6 115/11/6
f 114/93/4 98/83/4 100/84/4 116/94/4
f 118/95/1 117/96/1 114/91/1 98/81/1
f 100/81/2 116/91/2 119/96/2 120/95/2
f 114/9/6 117/15/6 119/16/6 116/12/6
f 117/93/4 118/83/4 120/84/4 119/94/4
f 118/15/5 98/9/5 100/12/5 120/16/5
f 122/97/1 121/98/1 117/96/1 118/95/1
f 120/95/2 119/96/2 123/98/2 124/97/2
f 117/15/6 121/19/6 123/20/6 119/16/6
f 121/93/4 122/83/4 124/84/4 123/94/4
f 122/19/5 118/15/5 120/16/5 124/20/5
f 102/85/1 126/99/1 125/100/1 101/86/1
f 103/86/2 127/100/2 128/99/2 104/85/2
f 101/83/3 125/93/3 127/94/3 103/84/3
f 125/23/6 126/27/6 128/28/6 127/24/6
f 126/93/4 102/83/4 104/84/4 128/94/4
f 130/101/1 129/102/1 126/99/1 102/85/1
f 104/85/2 128/99/2 131/102/2 132/101/2
f 126/27/6 129/31/6 131/32/6 128/28/6
f 129/93/4 130/83/4 132/84/4 131/94/4
f 130/31/5 102/27/5 104/28/5 132/32/5
f 134/103/1 133/104/1 129/102/1 130/101/1
f 132/101/2 131/102/2 135/104/2 136/103/2
f 129/31/6 133/35/6 135/36/6 131/32/6
f 133/93/4 134/83/4 136/84/4 135/94/4
f 134/35/5 130/31/5 132/32/5 136/36/5
f 105/88/1 137/105/1 133/104/1 134/103/1
f 136/103/2 135/104/2 138/105/2 107/88/2
f 133/35/6 137/39/6 138/40/6 135/36/6
f 137/93/4 105/83/4 107/84/4 138/94/4
f 105/39/5 134/35/5 136/36/5 107/40/5
f 106/87/1 139/106/1 137/105/1 105/88/1
f 107/88/2 138/105/2 140/106/2 108/87/2
f 137/39/6 139/43/6 140/44/6 138/40/6
f 139/93/4 106/83/4 108/84/4 140/94/4
f 110/89/1 142/107/1 141/108/1 109/90/1
f 111/90/2 143/108/2 144/107/2 112/89/2
f 109/83/3 141/93/3 143/94/3 111/84/3
f 141/47/6 142/51/6 144/52/6 143/48/6
f 142/93/4 110/83/4 112/84/4 144/94/4
f 114/91/1 146/109/1 145/110/1 113/92/1
f 115/92/2 147/110/2 148/109/2 116/91/2
f 113/93/3 145/111/3 147/112/3 115/94/3
f 145/10/6 146/9/6 148/12/6 147/11/6
f 146/111/4 114/93/4 116/94/4 148/112/4
f 121/98/1 150/113/1 149/114/1 117/96/1
f 119/96/2 151/114/2 152/113/2 123/98/2
f 117/93/3 149/111/3 151/112/3 119/94/3
f 149/15/6 150/19/6 152/20/6 151/16/6
f 150/111/4 121/93/4 123/94/4 152/112/4
f 139/106/1 154/115/1 153/116/1 137/105/1
f 138/105/2 155/116/2 156/115/2 140/106/2
f 137/93/3 153/111/3 155/112/3 138/94/3
f 153/39/6 154/43/6 156/44/6 155/40/6
f 154/111/4 139/93/4 140/94/4 156/112/4
f 142/107/1 158/117/1 157/118/1 141/108/1
f 143/108/2 159/118/2 160/117/2 144/107/2
f 141/93/3 157/111/3 159/112/3 143/94/3
f 157/47/6 158/51/6 160/52/6 159/48/6
f 158/111/4 142/93/4 144/94/4 160/112/4
f 146/109/1 162/119/1 161/120/1 145/110/1
f 147/110/2 163/120/2 164/119/2 148/109/2
f 145/111/3 161/121/3 163/122/3 147/112/3
f 161/10/6 162/9/6 164/12/6 163/11/6
f 162/121/4 146/111/4 148/112/4 164/122/4
f 150/113/1 166/123/1 165/124/1 149/114/1
f 151/114/2 167/124/2 168/123/2 152/113/2
f 149/111/3 165/121/3 167/122/3 151/112/3
f 165/15/6 166/19/6 168/20/6 167/16/6
f 166/121/4 150/111/4 152/112/4 168/122/4
f 170/125/1 169/126/1 166/123/1 150/113/1
f 152/113/2 168/123/2 171/126/2 172/125/2
f 166/19/6 169/23/6 171/24/6 168/20/6
f 169/121/4 170/111/4 172/112/4 171/122/4
f 170/23/5 150/19/5 152/20/5 172/24/5
f 174/127/1 173/128/1 169/126/1 170/125/1
f 172/125/2 171/126/2 175/128/2 176/127/2
f 169/23/6 173/27/6 175/28/6 171/24/6
f 173/121/4 174/111/4 176/112/4 175/122/4
f 174/27/5 170/23/5 172/24/5 176/28/5
f 178/129/1 177/130/1 173/128/1 174/127/1
f 176/127/2 175/128/2 179/130/2 180/129/2
f 173/27/6 177/31/6 179/32/6 175/28/6
f 177/121/4 178/111/4 180/112/4 179/122/4
f 178/31/5 174/27/5 176/28/5 180/32/5
f 182/131/1 181/132/1 177/130/1 178/129/1
f 180/129/2 179/130/2 183/132/2 184/131/2
f 177/31/6 181/35/6 183/36/6 179/32/6
f 181/121/4 182/111/4 184/112/4 183/122/4
f 182/35/5 178/31/5 180/32/5 184/36/5
f 154/115/1 186/133/1 185/134/1 153/116/1
f 155/116/2 187/134/2 188/133/2 156/115/2
f 153/111/3 185/121/3 187/122/3 155/112/3
f 185/39/6 186/43/6 188/44/6 187/40/6
f 186/121/4 154/111/4 156/112/4 188/122/4
f 158/117/1 190/135/1 189/136/1 157/118/1
f 159/118/2 191/136/2 192/135/2 160/117/2
f 157/111/3 189/121/3 191/122/3 159/112/3
f 189/47/6 190/51/6 192/52/6 191/48/6
f 190/121/4 158/111/4 160/112/4 192/122/4
f 162/119/1 194/137/1 193/138/1 161/120/1
f 163/120/2 195/138/2 196/137/2 164/119/2
f 161/121/3 193/139/3 195/140/3 163/122/3
f 193/10/6 194/9/6 196/12/6 195/11/6
f 194/139/4 162/121/4 164/122/4 196/140/4
f 173/128/1 198/141/1 197/142/1 169/126/1
f 171/126/2 199/142/2 200/141/2 175/128/2
f 169/121/3 197/139/3 199/140/3 171/122/3
f 197/23/6 198/27/6 200/28/6 199/24/6
f 198/139/4 173/121/4 175/122/4 200/140/4
f 186/133/1 202/143/1 201/144/1 185/134/1
f 187/134/2 203/144/2 204/143/2 188/133/2
f 185/121/3 201/139/3 203/140/3 187/122/3
f 201/39/6 202/43/6 204/44/6 203/40/6
f 202/139/4 186/121/4 188/122/4 204/140/4
f 190/135/1 206/145/1 205/146/1 189/136/1
f 191/136/2 207/146/2 208/145/2 192/135/2
f 189/121/3 205/139/3 207/140/3 191/122/3
f 205/47/6 206/51/6 208/52/6 207/48/6
f 206/139/4 190/121/4 192/122/4 208/140/4
f 194/137/1 210/147/1 209/148/1 193/138/1
f 195/138/2 211/148/2 212/147/2 196/137/2
f 193/139/3 209/149/3 211/150/3 195/140/3
f 209/10/6 210/9/6 212/12/6 211/11/6
f 210/149/4 194/139/4 196/140/4 212/150/4
f 216/151/1 215/152/1 214/153/1 213/154/1
f 217/154/2 218/153/2 219/152/2 220/151/2
f 213/139/3 214/149/3 218/150/3 217/140/3
f 214/15/6 215/19/6 219/20/6 218/16/6
f 215/149/4 216/139/4 220/140/4 219/150/4
f 216/19/5 213/15/5 217/16/5 220/20/5
f 198/141/1 222/155/1 221/156/1 197/142/1
f 199/142/2 223/156/2 224/155/2 200/141/2
f 197/139/3 221/149/3 223/150/3 199/140/3
f 221/23/6 222/27/6 224/28/6 223/24/6
f 222/149/4 198/139/4 200/140/4 224/150/4
f 228/157/1 227/158/1 226/159/1 225/160/1
f 229/160/2 230/159/2 231/158/2 232/157/2
f 225/139/3 226/149/3 230/150/3 229/140/3
f 226/31/6 227/35/6 231/36/6 230/32/6
f 227/149/4 228/139/4 232/140/4 231/150/4
f 228/35/5 225/31/5 229/32/5 232/36/5
f 201/144/1 233/161/1 227/158/1 228/157/1
f 232/157/2 231/158/2 234/161/2 203/144/2
f 227/35/6 233/39/6 234/40/6 231/36/6
f 233/149/4 201/139/4 203/140/4 234/150/4
f 201/39/5 228/35/5 232/36/5 203/40/5
f 202/143/1 235/162/1 233/161/1 201/144/1
f 203/144/2 234/161/2 236/162/2 204/143/2
f 233/39/6 235/43/6 236/44/6 234/40/6
f 235/149/4 202/139/4 204/140/4 236/150/4
f 206/145/1 238/163/1 237/164/1 205/146/1
f 207/146/2 239/164/2 240/163/2 208/145/2
f 205/139/3 237/149/3 239/150/3 207/140/3
f 238/149/4 206/139/4 208/140/4 240/150/4
f 210/147/1 242/165/1 241/166/1 209/148/1
f 211/148/2 243/166/2 244/165/2 212/147/2
f 209/149/3 241/167/3 243/168/3 211/150/3
f 241/10/6 242/9/6 244/12/6 243/11/6
f 242/167/4 210/149/4 212/150/4 244/168/4
f 215/152/1 246/169/1 245/170/1 214/153/1
f 218/153/2 247/170/2 248/169/2 219/152/2
f 214/149/3 245/167/3 247/168/3 218/150/3
f 245/15/6 246/19/6 248/20/6 247/16/6
f 246/167/4 215/149/4 219/150/4 248/168/4
f 242/165/1 250/171/1 249/172/1 241/166/1
f 243/166/2 251/172/2 252/171/2 244/165/2
f 241/167/3 249/173/3 251/174/3 243/168/3
f 249/10/6 250/9/6 252/12/6 251/11/6
f 250/173/4 242/167/4 244/168/4 252/174/4
f 245/170/1 253/175/1 250/171/1 242/165/1
f 244/165/2 252/171/2 254/175/2 247/170/2
f 250/9/6 253/15/6 254/16/6 252/12/6
f 253/173/4 245/167/4 247/168/4 254/174/4
f 245/15/5 242/9/5 244/12/5 247/16/5
f 246/169/1 255/176/1 253/175/1 245/170/1
f 247/170/2 254/175/2 256/176/2 248/169/2
f 253/15/6 255/19/6 256/20/6 254/16/6
f 255/173/4 246/167/4 248/168/4 256/174/4
f 258/177/1 257/178/1 255/176/1 246/169/1
f 248/169/2 256/176/2 259/178/2 260/177/2
f 255/19/6 257/23/6 259/24/6 256/20/6
f 257/173/4 258/167/4 260/168/4 259/174/4
f 258/23/5 246/19/5 248/20/5 260/24/5
f 262/179/1 261/180/1 257/178/1 258/177/1
f 260/177/2 259/178/2 263/180/2 264/179/2
f 257/23/6 261/27/6 263/28/6 259/24/6
f 261/173/4 262/167/4 264/168/4 263/174/4
f 262/27/5 258/23/5 260/24/5 264/28/5
f 266/181/1 265/182/1 261/180/1 262/179/1
f 264/179/2 263/180/2 267/182/2 268/181/2
f 261/27/6 265/31/6 267/32/6 263/28/6
f 265/173/4 266/167/4 268/168/4 267/174/4
f 266/31/5 262/27/5 264/28/5 268/32/5
f 270/183/1 269/184/1 265/182/1 266/181/1
f 268/181/2 267/182/2 271/184/2 272/183/2
f 265/31/6 269/35/6 271/36/6 267/32/6
f 269/173/4 270/167/4 272/168/4 271/174/4
f 270/35/5 266/31/5 268/32/5 272/36/5
f 274/185/1 273/186/1 269/184/1 270/183/1
f 272/183/2 271/184/2 275/186/2 276/185/2
f 65/187/2 9/187/2 3/187/2 60/187/2
f 269/35/6 273/39/6 275/40/6 271/36/6
f 273/173/4 274/167/4 276/168/4 275/174/4
f 274/39/5 270/35/5 272/36/5 276/40/5
f 278/188/1 277/189/1 273/186/1 274/185/1
f 276/185/2 275/186/2 279/189/2 280/188/2
f 68/187/2 13/187/2 9/187/2 65/187/2
f 273/39/6 277/43/6 279/44/6 275/40/6
f 277/173/4 278/167/4 280/168/4 279/174/4
f 278/43/5 274/39/5 276/40/5 280/44/5
f 282/190/1 281/191/1 277/189/1 278/188/1
f 280/188/2 279/189/2 283/191/2 284/190/2
f 74/187/2 17/187/2 13/187/2 68/187/2
f 277/43/6 281/47/6 283/48/6 279/44/6
f 281/173/4 282/167/4 284/168/4 283/174/4
f 282/47/5 278/43/5 280/44/5 284/48/5
f 286/192/1 285/193/1 281/191/1 282/190/1
f 284/190/2 283/191/2 287/193/2 288/192/2
f 78/187/2 21/187/2 17/187/2 74/187/2
f 281/47/6 285/51/6 287/52/6 283/48/6
f 285/173/4 286/167/4 288/168/4 287/174/4
f 59/60/2 66/67/2 65/68/2 60/59/2
f 25/187/2 21/187/2 78/187/2 49/187/2
f 77/187/2 81/187/2 49/187/2 78/187/2
f 82/73/2 86/77/2 85/78/2 50/53/2
f 86/187/2 82/187/2 134/187/2 105/187/2
f 82/187/2 81/187/2 130/187/2 134/187/2
f 81/187/2 77/187/2 102/187/2 130/187/2
f 29/187/2 50/187/2 85/187/2 33/187/2
f 33/187/2 85/187/2 88/187/2 37/187/2
f 235/187/2 237/187/2 205/187/2 202/187/2
f 202/187/2 205/187/2 189/187/2 186/187/2
f 186/187/2 189/187/2 157/187/2 154/187/2
f 154/187/2 157/187/2 141/187/2 139/187/2
f 139/187/2 141/187/2 109/187/2 106/187/2
f 106/187/2 109/187/2 93/187/2 87/187/2
f 87/187/2 93/187/2 53/187/2 88/187/2
f 88/187/2 53/187/2 41/187/2 37/187/2
f 237/187/2 235/187/2 278/187/2 282/187/2
f 235/187/2 233/187/2 274/187/2 278/187/2
f 233/187/2 227/187/2 270/187/2 274/187/2
f 227/187/2 226/187/2 266/187/2 270/187/2
f 222/155/2 221/156/2 258/177/2 262/179/2
f 266/187/2 226/187/2 222/187/2 262/187/2
f 226/187/2 225/187/2 198/187/2 222/187/2
f 246/187/2 258/187/2 221/187/2 215/187/2
f 215/187/2 221/187/2 197/187/2 216/187/2
f 166/187/2 216/187/2 197/187/2 169/187/2
f 165/187/2 213/187/2 216/187/2 166/187/2
f 245/187/2 214/187/2 210/187/2 242/187/2
f 214/187/2 213/187/2 194/187/2 210/187/2
f 213/187/2 165/187/2 162/187/2 194/187/2
f 165/187/2 149/187/2 146/187/2 162/187/2
f 149/187/2 117/187/2 114/187/2 146/187/2
f 228/187/2 181/187/2 177/187/2 225/187/2
f 225/187/2 177/187/2 173/187/2 198/187/2
f 185/187/2 181/187/2 228/187/2 201/187/2
f 181/187/2 185/187/2 153/187/2 182/187/2
f 137/187/2 133/187/2 182/187/2 153/187/2
f 133/187/2 129/187/2 178/187/2 182/187/2
f 129/187/2 126/187/2 174/187/2 178/187/2
f 126/187/2 125/187/2 170/187/2 174/187/2
f 150/187/2 170/187/2 125/187/2 121/187/2
f 121/187/2 125/187/2 101/187/2 122/187/2
f 73/187/2 67/187/2 122/187/2 101/187/2
f 67/187/2 66/187/2 118/187/2 122/187/2
f 66/187/2 59/187/2 98/187/2 118/187/2
f 240/150/4 288/168/4 286/167/4 238/149/4
f 240/150/2 239/164/2 284/190/2 288/168/2
f 237/187/3 282/187/3 284/187/3 239/187/3
f 7/2/2 6/3/2 61/62/2 64/59/2
f 6/3/3 2/6/3 57/55/3 61/62/3
f 60/187/4 3/187/4 7/187/4 64/187/4
f 57/187/1 2/187/1 3/187/1 60/187/1
f 282/187/1 237/187/1 238/187/1 286/187/1
